<svg width="18" height="18" viewBox="0 0 18 18" fill="none" xmlns="http://www.w3.org/2000/svg">
<path d="M8.69434 0.371094C12.1113 0.371094 13.8202 0.371301 15.0508 1.18555C15.6003 1.54914 16.071 2.01984 16.4346 2.56934C17.2487 3.79986 17.249 5.50822 17.249 8.9248C17.249 12.3418 17.2488 14.0507 16.4346 15.2812C16.071 15.8308 15.6003 16.3014 15.0508 16.665C13.8202 17.4793 12.1113 17.4795 8.69434 17.4795C5.27775 17.4795 3.5694 17.4791 2.33887 16.665C1.78937 16.3015 1.31867 15.8307 0.955078 15.2812C0.140833 14.0507 0.140625 12.3418 0.140625 8.9248C0.140625 5.50812 0.140922 3.79987 0.955078 2.56934C1.31868 2.01982 1.78935 1.54915 2.33887 1.18555C3.5694 0.371391 5.27765 0.371094 8.69434 0.371094ZM8.70215 4.49609C6.25633 4.49609 4.27344 6.47898 4.27344 8.9248C4.27352 11.3706 6.25638 13.3535 8.70215 13.3535C11.1478 13.3534 13.1308 11.3705 13.1309 8.9248C13.1309 6.47904 11.1479 4.49618 8.70215 4.49609ZM8.70215 5.99414C10.3204 5.99423 11.6318 7.30652 11.6318 8.9248C11.6317 10.543 10.3204 11.8544 8.70215 11.8545C7.08387 11.8545 5.77157 10.5431 5.77148 8.9248C5.77148 7.30647 7.08381 5.99414 8.70215 5.99414ZM13.3066 3.23438C12.7319 3.23438 12.2656 3.70069 12.2656 4.27539C12.2659 4.84989 12.7321 5.31543 13.3066 5.31543C13.881 5.31519 14.3464 4.84974 14.3467 4.27539C14.3467 3.70084 13.8811 3.23461 13.3066 3.23438Z" fill="#FF7F31"/>
</svg>
