<svg width="18" height="17" viewBox="0 0 18 17" fill="none" xmlns="http://www.w3.org/2000/svg">
<path d="M0.101562 2.15244C0.101562 1.60383 0.294227 1.15123 0.679541 0.794653C1.06485 0.438056 1.56578 0.259766 2.18228 0.259766C2.78779 0.259766 3.27769 0.435307 3.652 0.786424C4.03731 1.1485 4.22998 1.62029 4.22998 2.20182C4.22998 2.72848 4.04283 3.16735 3.66851 3.51846C3.2832 3.88054 2.77678 4.06158 2.14926 4.06158H2.13274C1.52724 4.06158 1.03734 3.88054 0.663027 3.51846C0.288712 3.15638 0.101562 2.70104 0.101562 2.15244ZM0.31624 16.5532V5.55926H3.98227V16.5532H0.31624ZM6.01346 16.5532H9.67949V10.4144C9.67949 10.0304 9.72353 9.73411 9.8116 9.52565C9.96572 9.1526 10.1997 8.83715 10.5134 8.57932C10.8272 8.32147 11.2208 8.19255 11.6942 8.19255C12.9272 8.19255 13.5437 9.02094 13.5437 10.6777V16.5532H17.2097V10.2498C17.2097 8.62594 16.8244 7.39434 16.0538 6.55497C15.2831 5.71561 14.2648 5.29593 12.9987 5.29593C11.5786 5.29593 10.4721 5.90488 9.67949 7.12278V7.15569H9.66298L9.67949 7.12278V5.55926H6.01346C6.03547 5.91036 6.04648 7.00207 6.04648 8.83442C6.04648 10.6667 6.03547 13.2397 6.01346 16.5532Z" fill="#FF7F31"/>
</svg>
