<svg width="18" height="14" viewBox="0 0 18 14" fill="none" xmlns="http://www.w3.org/2000/svg">
<path d="M11.6108 -0.00668456V-0.00976562H12.413L12.7061 0.0487747C12.9015 0.0867796 13.0789 0.136585 13.2384 0.198206C13.3978 0.259828 13.552 0.331725 13.7012 0.413881C13.8503 0.496038 13.9855 0.57975 14.1069 0.664988C14.2272 0.749209 14.3352 0.83856 14.4308 0.933041C14.5254 1.02855 14.673 1.0532 14.8736 1.00699C15.0741 0.960771 15.2901 0.896577 15.5215 0.81442C15.7529 0.732263 15.9817 0.639831 16.208 0.537124C16.4342 0.434416 16.5721 0.369206 16.6214 0.341476C16.6698 0.31273 16.6955 0.297324 16.6986 0.29526L16.7016 0.290638L16.7171 0.282936L16.7325 0.275233L16.7479 0.26753L16.7633 0.259828L16.7664 0.255206L16.7711 0.252125L16.7757 0.249044L16.7788 0.244422L16.7942 0.239801L16.8096 0.23672L16.8066 0.259828L16.8019 0.282936L16.7942 0.306044L16.7865 0.329152L16.7788 0.344557L16.7711 0.359962L16.7633 0.383071C16.7582 0.398476 16.7531 0.419011 16.7479 0.444692C16.7428 0.470373 16.6939 0.573065 16.6014 0.752799C16.5088 0.932533 16.3931 1.11482 16.2543 1.29969C16.1154 1.48455 15.991 1.62422 15.881 1.71871C15.7699 1.81423 15.6963 1.88098 15.6603 1.91898C15.6243 1.958 15.5806 1.99395 15.5292 2.02682L15.4521 2.07766L15.4367 2.08536L15.4212 2.09306L15.4182 2.09768L15.4135 2.10077L15.4089 2.10385L15.4058 2.10847L15.3904 2.11617L15.3749 2.12387L15.3719 2.1285L15.3672 2.13158L15.3626 2.13466L15.3595 2.13928L15.3564 2.1439L15.3518 2.14698L15.3472 2.15006L15.3441 2.15468H15.4212L15.8532 2.06225C16.1411 2.00063 16.4162 1.92618 16.6785 1.83887L17.095 1.70023L17.1413 1.68482L17.1644 1.67712L17.1799 1.66942L17.1953 1.66171L17.2107 1.65401L17.2261 1.64631L17.257 1.64169L17.2878 1.63861V1.66942L17.2801 1.6725L17.2724 1.67712L17.2694 1.68174L17.2647 1.68482L17.2601 1.6879L17.257 1.69252L17.2539 1.69715L17.2493 1.70023L17.2447 1.70331L17.2416 1.70793L17.2385 1.71255L17.2339 1.71563L17.2261 1.73104L17.2184 1.74644L17.2138 1.74952C17.2117 1.75261 17.1464 1.83989 17.0179 2.01141C16.8893 2.18395 16.8199 2.27124 16.8096 2.27331C16.7993 2.27639 16.7849 2.29179 16.7664 2.31952C16.7489 2.34827 16.6399 2.46279 16.4394 2.66306C16.2388 2.86333 16.0424 3.04151 15.8501 3.19763C15.6568 3.35476 15.559 3.54784 15.557 3.77687C15.5539 4.00487 15.5421 4.26266 15.5215 4.55021C15.5009 4.83779 15.4624 5.14845 15.4058 5.48224C15.3492 5.81602 15.2618 6.19346 15.1435 6.61453C15.0253 7.0356 14.8813 7.44642 14.7116 7.84696C14.5419 8.2475 14.3645 8.60695 14.1794 8.92533C13.9943 9.24371 13.8246 9.51331 13.6703 9.73411C13.516 9.95492 13.3592 10.1629 13.1998 10.358C13.0404 10.5532 12.8388 10.773 12.5951 11.0174C12.3503 11.2608 12.2166 11.3943 12.194 11.4179C12.1703 11.4405 12.0696 11.5247 11.8916 11.6706C11.7147 11.8174 11.5245 11.9643 11.3208 12.1112C11.1182 12.257 10.9321 12.3787 10.7624 12.4763C10.5927 12.5738 10.388 12.6853 10.1484 12.8106C9.9098 12.9369 9.65165 13.054 9.37397 13.1618C9.09629 13.2696 8.80319 13.3698 8.49466 13.4622C8.18612 13.5546 7.88788 13.6265 7.59991 13.6779C7.31196 13.7292 6.98542 13.7729 6.62032 13.8088L6.07267 13.8627V13.8704H5.06994V13.8627L4.93881 13.855C4.8514 13.8499 4.77941 13.8448 4.72284 13.8396C4.66628 13.8345 4.45287 13.8063 4.08263 13.7549C3.71239 13.7036 3.42186 13.6522 3.21103 13.6009C3.0002 13.5495 2.68652 13.4519 2.27 13.3081C1.85348 13.1644 1.49712 13.019 1.20093 12.8722C0.905774 12.7263 0.720654 12.6339 0.645573 12.5949C0.571525 12.5569 0.488221 12.5096 0.395661 12.4532L0.256821 12.3684L0.253751 12.3638L0.249107 12.3607L0.244479 12.3576L0.241394 12.353L0.225967 12.3453L0.210541 12.3376L0.207471 12.333L0.202827 12.3299L0.198199 12.3268L0.195114 12.3222L0.192044 12.3176L0.187401 12.3145H0.179688V12.2837L0.195114 12.2868L0.210541 12.2914L0.279961 12.2991C0.326241 12.3042 0.45223 12.3119 0.657914 12.3222C0.863613 12.3325 1.08215 12.3325 1.31355 12.3222C1.54495 12.3119 1.7815 12.2888 2.02317 12.2529C2.26486 12.2169 2.55026 12.1553 2.87935 12.068C3.20846 11.9807 3.51083 11.877 3.78646 11.7568C4.06105 11.6357 4.25644 11.5453 4.37267 11.4857C4.48784 11.4272 4.66371 11.3183 4.90024 11.1591L5.25506 10.9203L5.25814 10.9157L5.26277 10.9126L5.26741 10.9095L5.27048 10.9049L5.27357 10.9003L5.2782 10.8972L5.28284 10.8941L5.28591 10.8895L5.30134 10.8849L5.31676 10.8818L5.31985 10.8664L5.32448 10.851L5.32912 10.8479L5.33219 10.8433L5.20878 10.8356C5.12651 10.8305 5.0468 10.8253 4.96966 10.8202C4.89253 10.8151 4.77169 10.7919 4.60714 10.7509C4.4426 10.7098 4.26519 10.6482 4.07492 10.566C3.88466 10.4838 3.69954 10.3863 3.51956 10.2733C3.33959 10.1603 3.20948 10.0663 3.12926 9.99138C3.05008 9.91742 2.94723 9.81268 2.82073 9.67711C2.69527 9.54053 2.58625 9.40032 2.49369 9.25655C2.40113 9.11277 2.31268 8.94688 2.22836 8.75895L2.10031 8.47858L2.09259 8.45547L2.08488 8.43236L2.08025 8.41695L2.07717 8.40155L2.10031 8.40463L2.12345 8.40925L2.29314 8.43236C2.40628 8.44777 2.58369 8.4529 2.82536 8.44777C3.06705 8.44264 3.23417 8.43236 3.32673 8.41695C3.41929 8.40155 3.47585 8.39127 3.49642 8.38614L3.52727 8.37844L3.56584 8.37074L3.60441 8.36304L3.60749 8.35841L3.61212 8.35533L3.61676 8.35225L3.61983 8.34763L3.58898 8.33993L3.55813 8.33223L3.52727 8.32452L3.49642 8.31682L3.46557 8.30912C3.445 8.30399 3.40901 8.29371 3.35758 8.27831C3.30616 8.2629 3.16732 8.20641 2.94106 8.10885C2.71481 8.01129 2.53483 7.91628 2.40113 7.82385C2.26709 7.73115 2.13929 7.62977 2.01854 7.52036C1.89822 7.40945 1.76607 7.26668 1.62208 7.0921C1.4781 6.91751 1.34955 6.71466 1.23641 6.48358C1.12329 6.2525 1.03844 6.0317 0.981874 5.82115C0.925532 5.61185 0.88836 5.39786 0.870817 5.18183L0.843034 4.85832L0.85846 4.8614L0.873887 4.86602L0.889314 4.87373L0.90474 4.88143L0.920167 4.88913L0.935594 4.89683L1.17471 5.00467C1.33413 5.07657 1.5321 5.13819 1.76863 5.18954C2.00519 5.24088 2.14659 5.26914 2.19287 5.27427L2.26229 5.28197H2.40113L2.39806 5.27735L2.39341 5.27427L2.38878 5.27118L2.3857 5.26656L2.38263 5.26194L2.37799 5.25886L2.37336 5.25578L2.37027 5.25116L2.35485 5.24345L2.33942 5.23575L2.33635 5.23113L2.33171 5.22805L2.32708 5.22497L2.32399 5.22035L2.30857 5.21264L2.29314 5.20494L2.29007 5.20032C2.28698 5.19826 2.24276 5.1654 2.15738 5.10173C2.07305 5.03702 1.98461 4.95333 1.89205 4.85062C1.79949 4.74791 1.70693 4.64007 1.61437 4.52711C1.52164 4.41388 1.43904 4.29274 1.36754 4.16508C1.29556 4.03671 1.21944 3.8734 1.13923 3.67519C1.06004 3.478 0.999877 3.27927 0.958734 3.079C0.917606 2.87874 0.894466 2.68104 0.889314 2.4859C0.884177 2.29076 0.889314 2.12387 0.90474 1.98523C0.920167 1.84658 0.95102 1.68995 0.9973 1.51536C1.04358 1.34077 1.11044 1.15591 1.19785 0.960771L1.32897 0.668069L1.33669 0.644961L1.3444 0.621853L1.34904 0.618772L1.35211 0.614151L1.3552 0.609529L1.35983 0.606448L1.36447 0.609529L1.36754 0.614151L1.37063 0.618772L1.37525 0.621853L1.3799 0.624934L1.38297 0.629556L1.38605 0.634178L1.39068 0.637259L1.39839 0.652664L1.40611 0.668069L1.41075 0.67115L1.41382 0.675772L1.62208 0.906852C1.76092 1.06091 1.92548 1.23294 2.11573 1.42293C2.30601 1.61292 2.41142 1.71152 2.43198 1.71871C2.45256 1.72692 2.47826 1.75054 2.50911 1.78958C2.53997 1.82758 2.64282 1.91847 2.81765 2.06225C2.99249 2.20603 3.22132 2.37293 3.50413 2.56293C3.78696 2.75292 4.10063 2.94036 4.44516 3.12522C4.7897 3.31008 5.15994 3.47697 5.55588 3.62589C5.95183 3.77482 6.22951 3.87238 6.38892 3.9186C6.54834 3.96481 6.82086 4.02386 7.20653 4.09576C7.5922 4.16765 7.88274 4.21387 8.07814 4.23441C8.27354 4.25494 8.40725 4.26676 8.47923 4.26984L8.58722 4.27292L8.58415 4.24981L8.5795 4.2267L8.54865 4.03414C8.52808 3.90576 8.5178 3.72603 8.5178 3.49495C8.5178 3.26387 8.5358 3.05077 8.57179 2.85563C8.60779 2.66049 8.66179 2.46279 8.73377 2.26252C8.80576 2.06225 8.87622 1.90151 8.94511 1.78033C9.01506 1.66017 9.10658 1.52307 9.21971 1.36901C9.33285 1.21496 9.4794 1.05578 9.65937 0.891447C9.83935 0.727118 10.045 0.580767 10.2764 0.452395C10.5078 0.324022 10.7212 0.226444 10.9166 0.159693C11.112 0.0929418 11.2766 0.049283 11.4103 0.0287477C11.544 0.00821241 11.6108 -0.00360349 11.6108 -0.00668456V-0.00668456Z" fill="#FF7F31"/>
</svg>
