<svg width="19" height="14" viewBox="0 0 19 14" fill="none" xmlns="http://www.w3.org/2000/svg">
<path d="M9.99829 13.563L6.13736 13.4908C4.88728 13.4657 3.63409 13.5159 2.40852 13.2554C0.544141 12.8662 0.412062 10.9577 0.273855 9.35694C0.0834202 7.10642 0.157143 4.81505 0.516518 2.58331C0.719397 1.33107 1.51781 0.583855 2.75252 0.502543C6.9206 0.207451 11.1164 0.242422 15.2752 0.380093C15.7144 0.392714 16.1567 0.461694 16.5898 0.540212C18.7277 0.923167 18.7798 3.08583 18.9184 4.90638C19.0566 6.74572 18.9982 8.5945 18.7341 10.4213C18.5221 11.9339 18.1167 13.2023 16.4055 13.3247C14.2615 13.4849 12.1667 13.6138 10.0167 13.5727C10.0168 13.563 10.0044 13.563 9.99829 13.563ZM7.72844 9.73363C9.34412 8.78564 10.929 7.85344 12.5354 6.91181C10.9167 5.96382 9.33488 5.03162 7.72844 4.08999V9.73363Z" fill="#FF7F31"/>
</svg>
